<svg width="33" height="33" viewBox="0 0 33 33" fill="none" xmlns="http://www.w3.org/2000/svg">
<circle cx="16.3767" cy="16.842" r="16" fill="white" fill-opacity="0.3"/>
<path fill-rule="evenodd" clip-rule="evenodd" d="M12.3757 11.3231C11.9565 10.9039 11.2769 10.9039 10.8578 11.3231C10.4386 11.7422 10.4386 12.4218 10.8578 12.841L14.8588 16.842L10.8578 20.8431C10.4386 21.2622 10.4386 21.9418 10.8578 22.361C11.2769 22.7802 11.9565 22.7802 12.3757 22.361L16.3767 18.36L20.3778 22.361C20.7969 22.7802 21.4765 22.7802 21.8957 22.361C22.3148 21.9418 22.3148 21.2622 21.8957 20.8431L17.8946 16.842L21.8957 12.841C22.3148 12.4218 22.3148 11.7422 21.8957 11.3231C21.4765 10.9039 20.7969 10.9039 20.3778 11.3231L16.3767 15.3241L12.3757 11.3231Z" fill="white"/>
</svg>
