<svg width="43" height="42" viewBox="0 0 43 42" fill="none" xmlns="http://www.w3.org/2000/svg">
<rect x="0.376709" width="42" height="42" rx="21" fill="#1CB4D9"/>
<path fill-rule="evenodd" clip-rule="evenodd" d="M12.4887 31.964C12.7608 32.1648 13.1386 32.1066 13.3551 31.8467L14.2328 30.7931C14.4755 30.5018 14.4249 30.0681 14.1357 29.8229C8.71038 25.2228 8.72374 17.5925 12.9348 13.0538C17.309 8.3394 24.6198 8.01798 29.2299 12.316C31.5769 14.5044 32.8824 17.2079 32.9846 20.4073C33.107 24.241 31.6201 27.3594 28.7456 29.8105C28.459 30.0548 28.4117 30.4854 28.6532 30.7743L29.5577 31.8564C29.7797 32.1221 30.1696 32.1747 30.4428 31.962C34.6291 28.7032 36.9664 22.7043 35.1726 16.734C33.2494 10.3327 27.4096 6.28783 20.5612 6.54974C14.2937 6.78955 8.79048 11.5471 7.4169 17.9866C6.20206 23.6816 8.78433 29.2297 12.4887 31.964ZM24.9842 26.3696C24.7378 26.0734 24.7969 25.632 25.0871 25.3787C28.1229 22.7281 27.5979 18.852 25.629 16.8491C23.2421 14.4206 19.5094 14.4597 17.1633 16.961C15.2925 18.9558 14.8105 22.7608 17.8161 25.377C18.1069 25.6301 18.1664 26.0719 17.9199 26.3683L16.9406 27.5462C16.7333 27.7956 16.3743 27.8622 16.1088 27.6761C13.4369 25.8028 12.1315 21.8909 13.0979 18.4901C14.1857 14.6629 17.6551 12.0998 21.6326 12.1844C25.6218 12.2695 29.027 15.0313 29.9208 18.9069C30.668 22.1462 29.2489 26.0484 26.7671 27.6862C26.5058 27.8586 26.1626 27.7864 25.9625 27.5458L24.9842 26.3696ZM21.4426 23.3184C22.7971 23.3134 23.8909 22.2251 23.8983 20.8746C23.906 19.503 22.8458 18.4152 21.4893 18.4022C20.1243 18.3894 19.015 19.4475 18.9822 20.794C18.9491 22.1475 20.0952 23.3232 21.4426 23.3184Z" fill="white"/>
</svg>
