<svg width="116" height="28" viewBox="0 0 116 28" fill="none" xmlns="http://www.w3.org/2000/svg">
<path fill-rule="evenodd" clip-rule="evenodd" d="M6.06538 25.8681C6.3422 26.0724 6.7266 26.0132 6.94682 25.7488L7.83979 24.6769C8.08669 24.3805 8.03527 23.9393 7.74105 23.6898C2.22142 19.0098 2.23501 11.2469 6.51928 6.62926C10.9694 1.83298 18.4073 1.50597 23.0975 5.87867C25.4853 8.10513 26.8135 10.8556 26.9175 14.1106C27.042 18.0109 25.5292 21.1835 22.6048 23.6772C22.3133 23.9257 22.2651 24.3638 22.5108 24.6577L23.431 25.7587C23.6569 26.029 24.0535 26.0825 24.3315 25.8661C28.5905 22.5507 30.9685 16.4475 29.1435 10.3735C27.1869 3.86094 21.2455 -0.254251 14.2782 0.0122095C7.90179 0.256188 2.30291 5.09641 0.905454 11.6478C-0.330494 17.4418 2.29665 23.0863 6.06538 25.8681ZM18.778 20.1765C18.5274 19.8752 18.5875 19.4261 18.8827 19.1683C21.9712 16.4717 21.4372 12.5282 19.4341 10.4905C17.0057 8.01981 13.2081 8.05966 10.8212 10.6044C8.91787 12.6338 8.42751 16.505 11.4854 19.1666C11.7813 19.4242 11.8417 19.8736 11.591 20.1752L10.5947 21.3736C10.3838 21.6272 10.0185 21.695 9.74845 21.5057C7.03009 19.5998 5.70194 15.62 6.68521 12.16C7.79193 8.26634 11.3216 5.65871 15.3682 5.7448C19.4267 5.83141 22.8911 8.64112 23.8004 12.5841C24.5606 15.8797 23.1168 19.8497 20.5919 21.516C20.3261 21.6914 19.9769 21.6179 19.7733 21.3731L18.778 20.1765ZM15.1749 17.0723C16.553 17.0672 17.6657 15.96 17.6732 14.586C17.6811 13.1906 16.6025 12.0839 15.2224 12.0706C13.8337 12.0576 12.7051 13.1342 12.6718 14.504C12.6381 15.881 13.804 17.0772 15.1749 17.0723Z" fill="white"/>
<path fill-rule="evenodd" clip-rule="evenodd" d="M79.8773 13.2044L82.1696 21.1786C82.1945 21.2654 82.2813 21.3262 82.3808 21.3262H85.5481C85.6472 21.3262 85.7337 21.266 85.7591 21.1797L89.4474 8.64273C89.4841 8.51784 89.38 8.39496 89.2364 8.39496H86.5101C86.4095 8.39496 86.3222 8.45694 86.2981 8.54488L83.8684 17.4395L81.1559 8.53978C81.1299 8.45433 81.0438 8.39496 80.9455 8.39496H78.8092C78.7108 8.39496 78.6248 8.45433 78.5987 8.53978L75.8863 17.4393L73.4453 8.51747C73.4213 8.42955 73.3339 8.36761 73.2334 8.36761C73.1153 8.36761 72.9996 8.37001 72.8864 8.37466L62.9799 8.37582C60.8131 8.37582 58.8082 9.86574 58.8082 12.133C58.8082 13.3159 59.259 14.123 59.9385 14.7006C60.6215 15.2812 61.5391 15.6329 62.4755 15.8929C63.4219 16.1531 64.0859 16.362 64.513 16.6056C64.7278 16.7281 64.8875 16.862 64.9933 17.02C65.0998 17.1792 65.1481 17.3578 65.1481 17.5633C65.1481 17.818 65.085 18.0989 64.8313 18.3133C64.5808 18.5252 64.1573 18.661 63.4637 18.661L56.3383 18.6608C56.1719 18.6608 56.0266 18.7724 55.9843 18.9316C55.8511 19.4329 55.557 20.5101 55.3298 21.1237C55.3298 21.2322 55.4182 21.3204 55.5276 21.3204L63.2689 21.3205C64.4199 21.3205 65.578 21.0056 66.4464 20.3743C67.3125 19.7445 67.8922 18.7991 67.8922 17.5274C67.8922 16.221 67.3668 15.4107 66.6078 14.8528C65.8431 14.2907 64.8399 13.9836 63.8801 13.6951C62.8953 13.3983 62.315 13.1481 61.9807 12.8945C61.8121 12.7665 61.7035 12.6358 61.6379 12.4956C61.5724 12.3556 61.5523 12.2115 61.5523 12.0611C61.5523 11.7861 61.6763 11.527 61.9191 11.3384C62.161 11.1506 62.5168 11.0353 62.9799 11.0353L70.7519 11.0313C70.9093 11.044 71.0432 11.1443 71.0845 11.2847L73.9956 21.1797C74.021 21.266 74.1075 21.3262 74.2066 21.3262H77.3738C77.4734 21.3262 77.5601 21.2654 77.5851 21.1786L79.8773 13.2044ZM50.9612 16.5732H52.9307C55.3842 16.5732 57.2831 14.6807 57.2831 12.3306C57.2831 9.98042 55.3842 8.38754 52.9307 8.38754H48.4149C48.3055 8.38754 48.2171 8.47578 48.2171 8.58426V21.1118C48.2171 21.2203 48.3055 21.3086 48.4149 21.3086H50.7634C50.8729 21.3086 50.9612 21.2203 50.9612 21.1118V16.5732ZM50.9612 14.1758V10.9392H52.9307C53.8602 10.9392 54.5389 11.5702 54.5389 12.5231C54.5389 13.4761 53.8602 14.1758 52.9307 14.1758H50.9612ZM43.7841 16.5732L43.7473 16.6715C43.283 17.9102 42.1497 18.6607 40.4458 18.6607C39.2018 18.6607 38.1893 18.2643 37.4872 17.5907C36.7851 16.9171 36.3992 15.9714 36.3992 14.8839C36.3992 12.6325 38.0208 11.0351 40.1929 11.0351C41.5155 11.0351 42.5999 11.583 43.1889 12.3264C43.2593 12.4152 43.3799 12.4423 43.4706 12.3906L45.4575 11.2561C45.5559 11.2 45.5848 11.0762 45.5227 10.988C44.4354 9.44324 42.4955 8.37558 40.211 8.37558C36.5301 8.37558 33.655 11.2562 33.655 14.8659C33.655 18.4383 36.4746 21.3202 40.4097 21.3202C42.1637 21.3202 43.7026 20.7413 44.8026 19.6906C45.9021 18.6404 46.5683 17.1138 46.5683 15.2075V14.3981C46.5683 14.2897 46.4799 14.2014 46.3705 14.2014H41.314C41.1494 14.2014 41.0054 14.31 40.9615 14.4669C40.8349 14.9196 40.5702 15.8438 40.3742 16.3765C40.3742 16.485 40.4626 16.5732 40.572 16.5732H43.7841ZM89.8607 14.8537C89.8607 18.5168 92.7714 21.326 96.3625 21.326C99.9536 21.326 102.864 18.5168 102.864 14.8537C102.864 11.1906 99.9536 8.38141 96.3625 8.38141C92.7714 8.38141 89.8607 11.1906 89.8607 14.8537ZM100.12 14.8537C100.12 17.1424 98.461 18.6665 96.3625 18.6665C94.264 18.6665 92.6049 17.1424 92.6049 14.8537C92.6049 12.565 94.264 11.0409 96.3625 11.0409C98.461 11.0409 100.12 12.565 100.12 14.8537ZM109.319 12.6346L106.282 8.54403C106.214 8.45168 106.105 8.39713 105.989 8.39713H103.585C103.287 8.39713 103.116 8.73208 103.292 8.9697L107.665 14.8625L103.292 20.7534C103.116 20.991 103.287 21.326 103.586 21.326H105.992C106.108 21.326 106.217 21.2715 106.285 21.1791L109.319 17.0912L112.353 21.1791C112.421 21.2715 112.53 21.326 112.646 21.326H115.052C115.35 21.326 115.522 20.991 115.346 20.7534L110.973 14.8625L115.346 8.9697C115.522 8.73208 115.351 8.39713 115.052 8.39713H112.649C112.533 8.39713 112.424 8.45168 112.355 8.54403L109.319 12.6346Z" fill="white"/>
</svg>
