<svg width="33" height="33" viewBox="0 0 33 33" fill="none" xmlns="http://www.w3.org/2000/svg">
<path d="M17.471 10.1015C18.9122 10.2859 20.1933 10.9022 21.2803 11.9407C22.0859 12.7074 22.6925 13.644 23.0467 14.663C23.3088 15.4104 23.3767 15.8519 23.3767 16.871C23.3767 18.0745 23.2408 18.7247 22.7895 19.705C22.2072 20.9667 20.9164 22.2818 19.6159 22.9369C18.6939 23.4027 17.7622 23.6114 16.6072 23.6114C15.1611 23.6114 14.0693 23.2863 12.9192 22.5195C12.3999 22.1701 11.7157 21.5393 11.6235 21.3258C11.3857 20.7532 11.7836 20.0932 12.4145 20.0204C12.7396 19.9816 12.9823 20.0932 13.4239 20.4717C14.011 20.9909 14.6855 21.3452 15.4814 21.5636C16.0443 21.7188 17.2429 21.7188 17.8204 21.5587C19.8148 21.0201 21.2901 19.2828 21.4502 17.2835C21.5424 16.114 21.2949 15.1095 20.7029 14.2214C19.5431 12.4696 17.4322 11.635 15.4426 12.1396C14.7389 12.3143 13.7053 12.8821 13.3365 13.2994L13.2443 13.4013L13.9285 14.0953C14.4817 14.663 14.6176 14.8232 14.6419 14.9688C14.7195 15.3764 14.5109 15.7258 14.1275 15.8277C14.0013 15.8617 13.2249 15.8762 11.8807 15.8665C9.88624 15.8519 9.8183 15.8471 9.68243 15.75C9.37671 15.5268 9.37671 15.5365 9.37671 13.1781V11.0381L9.48832 10.8731C9.6339 10.6547 9.97359 10.514 10.2308 10.5577C10.3861 10.5868 10.5365 10.713 11.1479 11.3147L11.8758 12.0329L12.1913 11.7417C13.0211 10.9701 14.2342 10.383 15.428 10.1694C15.9521 10.0772 16.9954 10.0433 17.471 10.1015Z" fill="white"/>
</svg>
