<svg width="33" height="33" viewBox="0 0 33 33" fill="none" xmlns="http://www.w3.org/2000/svg">
<circle cx="16.9867" cy="16.672" r="16" fill="#1CB4D9"/>
<path d="M16.6002 9.97212C16.4741 10.0303 15.5287 10.9466 13.8561 12.6241C11.0829 15.4118 11.1605 15.3148 11.2041 15.8239C11.2429 16.2651 11.5823 16.5947 12.0526 16.6529C12.5035 16.7014 12.581 16.6432 14.3506 14.8542C15.233 13.9573 15.9796 13.2253 15.999 13.2253C16.0232 13.2253 16.0426 15.3488 16.0426 17.9765C16.0426 23.2077 16.0232 22.9119 16.3481 23.198C16.7941 23.5907 17.4631 23.5082 17.7928 23.0283L17.9092 22.8537L17.9237 18.0395C17.9286 15.3924 17.9528 13.2253 17.9674 13.2253C17.9868 13.2253 18.7576 13.9767 19.6788 14.893C21.0847 16.299 21.3805 16.5705 21.5453 16.6141C21.8411 16.6966 22.0107 16.6772 22.2822 16.5463C22.4713 16.4493 22.5537 16.3717 22.6604 16.1778C22.8349 15.8481 22.8204 15.4215 22.6216 15.1354C22.4228 14.8445 17.6377 10.0933 17.4535 10.0012C17.2013 9.87515 16.828 9.86061 16.6002 9.97212Z" fill="white"/>
</svg>